[img]http://img6.imageshack.us/img6/6571/sitteru.jpg[/img]
[code]
The Sitter 2011 720p TS XviD-26K

Imdb: 
http://www.imdb.com/title/tt1366344/

Plot:
A comedy about a college student on suspension who is coaxed into babysitting the kids next door, though he is fully unprepared for the wild night ahead of him.

Sources:
UNKNOWN VIDEO!! THNXS
AUDIO !!TH3GRiNCH thnxs !!

Notes:
used the 720p cam video and muxed the line in thnxs to TH3GRiNCH for the line your ock :P
Encoded the video added a few filters to make it look nice :)


Greetz:
Xtreme Encode|FYA|ILLUMANTI|CM8|RX|VISION|HDSCENE|NIGHTMAREZ|xTriLL|DTRG|CRYS|REMIXHD|BIDA
To all the people who have helped me :P you know who you are

Anything to offer email us @: 26k@hushmail.me

Video
ID                                       : 0
Format                                   : MPEG-4 Visual
Format profile                           : Advanced Simple@L5
Format settings, BVOP                    : 2
Format settings, QPel                    : No
Format settings, GMC                     : No warppoints
Format settings, Matrix                  : Default (H.263)
Codec ID                                 : XVID
Codec ID/Hint                            : XviD
Duration                                 : 1h 17mn
Bit rate                                 : 1 900 Kbps
Width                                    : 1 280 pixels
Height                                   : 646 pixels
Display aspect ratio                     : 1.981
Frame rate                               : 24.000 fps
Color space                              : YUV
Chroma subsampling                       : 4:2:0
Bit depth                                : 8 bits
Scan type                                : Progressive
Compression mode                         : Lossy
Bits/(Pixel*Frame)                       : 0.096
Stream size                              : 1.03 GiB (93%)
Writing library                          : XviD 63

Audio
ID                                       : 1
Format                                   : MPEG Audio
Format version                           : Version 1
Format profile                           : Layer 3
Mode                                     : Joint stereo
Mode extension                           : MS Stereo
Codec ID                                 : 55
Codec ID/Hint                            : MP3
Duration                                 : 1h 17mn
Bit rate mode                            : Constant
Bit rate                                 : 128 Kbps
Channel(s)                               : 2 channels
Sampling rate                            : 44.1 KHz
Compression mode                         : Lossy
Stream size                              : 71.0 MiB (6%)
Alignment                                : Aligned on interleaves
Interleave, duration                     : 42 ms (1.00 video frame)
Writing library                          : LAME3.98r
Encoding settings                        : -m j -V 4 -q 2 -lowpass 17 -b 128

[/code]
Screens:
[img]http://img9.imageshack.us/img9/9458/vlcsnap2011122615h17m10.png[/img]
[img]http://img4.imageshack.us/img4/111/vlcsnap2011122615h17m15.png[/img]
[img]http://img405.imageshack.us/img405/6766/vlcsnap2011122615h17m19.png[/img]
[img]http://img17.imageshack.us/img17/5686/vlcsnap2011122615h17m28.png[/img]
[img]http://img440.imageshack.us/img440/8734/vlcsnap2011122615h17m37.png[/img]
[img]http://img838.imageshack.us/img838/4343/vlcsnap2011122615h17m41.png[/img]

[img]http://img851.imageshack.us/img851/5503/26ks.jpg[/img]#
Thank you smallz for banner!